<mxfile host="app.diagrams.net" modified="2023-11-29T10:31:38.177Z" agent="Mozilla/5.0 (Macintosh; Intel Mac OS X 10_15_7) AppleWebKit/605.1.15 (KHTML, like Gecko) Version/17.1 Safari/605.1.15" version="22.1.4" etag="ChmlLdKXrtpyhrFAq4eZ" type="github">
  <diagram name="Страница — 1" id="6VoiFcYGHW1dJQxjmh3R">
    <mxGraphModel>
      <root>
        <mxCell id="0" />
        <mxCell id="1" parent="0" />
      </root>
    </mxGraphModel>
  </diagram>
</mxfile>
